<mxfile host="app.diagrams.net" agent="Mozilla/5.0 (Linux; arm_64; Android 14; Infinix X6833B) AppleWebKit/537.36 (KHTML, like Gecko) Chrome/132.0.6834.97 YaBrowser/25.2.2.97.00 SA/3 Mobile Safari/537.36" version="26.0.16">
  <diagram name="Страница — 1" id="7FCXJHGYXRGsj1LuG71z">
    <mxGraphModel dx="285" dy="1259" grid="1" gridSize="10" guides="1" tooltips="1" connect="1" arrows="1" fold="1" page="1" pageScale="1" pageWidth="827" pageHeight="1169" math="0" shadow="0">
      <root>
        <mxCell id="0" />
        <mxCell id="1" parent="0" />
        <mxCell id="mTrpfhtetsBGWyohpp0l-1" value="Название" style="ellipse;whiteSpace=wrap;html=1;aspect=fixed;" parent="1" vertex="1">
          <mxGeometry x="290" y="30" width="80" height="80" as="geometry" />
        </mxCell>
        <mxCell id="mTrpfhtetsBGWyohpp0l-2" value="Название" style="whiteSpace=wrap;html=1;aspect=fixed;" parent="1" vertex="1">
          <mxGeometry x="290" y="210" width="80" height="80" as="geometry" />
        </mxCell>
        <mxCell id="mTrpfhtetsBGWyohpp0l-3" value="&lt;font style=&quot;font-size: 24px;&quot;&gt;Нотация&lt;/font&gt;" style="text;html=1;align=center;verticalAlign=middle;whiteSpace=wrap;rounded=0;" parent="1" vertex="1">
          <mxGeometry x="70" y="-50" width="60" height="30" as="geometry" />
        </mxCell>
        <mxCell id="mTrpfhtetsBGWyohpp0l-5" value="&lt;font style=&quot;font-size: 18px;&quot;&gt;Объект&lt;/font&gt;" style="text;html=1;align=center;verticalAlign=middle;whiteSpace=wrap;rounded=0;" parent="1" vertex="1">
          <mxGeometry x="70" y="55" width="60" height="30" as="geometry" />
        </mxCell>
        <mxCell id="mTrpfhtetsBGWyohpp0l-6" value="&lt;font style=&quot;font-size: 18px;&quot;&gt;Процесс&lt;/font&gt;" style="text;html=1;align=center;verticalAlign=middle;whiteSpace=wrap;rounded=0;" parent="1" vertex="1">
          <mxGeometry x="60" y="235" width="80" height="30" as="geometry" />
        </mxCell>
        <mxCell id="mTrpfhtetsBGWyohpp0l-11" value="&lt;font style=&quot;font-size: 14px;&quot;&gt;Входы&lt;/font&gt;" style="text;html=1;align=center;verticalAlign=middle;whiteSpace=wrap;rounded=0;" parent="1" vertex="1">
          <mxGeometry x="230" y="235" width="60" height="30" as="geometry" />
        </mxCell>
        <mxCell id="mTrpfhtetsBGWyohpp0l-12" value="&lt;font style=&quot;font-size: 14px;&quot;&gt;Входы&lt;/font&gt;" style="text;html=1;align=center;verticalAlign=middle;whiteSpace=wrap;rounded=0;" parent="1" vertex="1">
          <mxGeometry x="300" y="180" width="60" height="30" as="geometry" />
        </mxCell>
        <mxCell id="mTrpfhtetsBGWyohpp0l-13" value="&lt;font style=&quot;font-size: 14px;&quot;&gt;Входы&lt;/font&gt;" style="text;html=1;align=center;verticalAlign=middle;whiteSpace=wrap;rounded=0;" parent="1" vertex="1">
          <mxGeometry x="300" y="290" width="60" height="30" as="geometry" />
        </mxCell>
        <mxCell id="mTrpfhtetsBGWyohpp0l-14" value="&lt;font style=&quot;font-size: 14px;&quot;&gt;Выходы&lt;/font&gt;" style="text;html=1;align=center;verticalAlign=middle;whiteSpace=wrap;rounded=0;" parent="1" vertex="1">
          <mxGeometry x="370" y="235" width="60" height="30" as="geometry" />
        </mxCell>
        <mxCell id="mTrpfhtetsBGWyohpp0l-16" value="&lt;font style=&quot;font-size: 36px;&quot;&gt;Разработка ПО&lt;/font&gt;" style="text;html=1;align=center;verticalAlign=middle;whiteSpace=wrap;rounded=0;" parent="1" vertex="1">
          <mxGeometry x="195" y="470" width="270" height="30" as="geometry" />
        </mxCell>
        <mxCell id="mTrpfhtetsBGWyohpp0l-48" style="edgeStyle=orthogonalEdgeStyle;rounded=0;orthogonalLoop=1;jettySize=auto;html=1;entryX=0;entryY=0.5;entryDx=0;entryDy=0;fontFamily=Helvetica;fontSize=12;fontColor=default;" parent="1" source="mTrpfhtetsBGWyohpp0l-18" target="mTrpfhtetsBGWyohpp0l-47" edge="1">
          <mxGeometry relative="1" as="geometry" />
        </mxCell>
        <mxCell id="mTrpfhtetsBGWyohpp0l-78" style="edgeStyle=orthogonalEdgeStyle;rounded=0;orthogonalLoop=1;jettySize=auto;html=1;exitX=1;exitY=0.5;exitDx=0;exitDy=0;entryX=0;entryY=0.5;entryDx=0;entryDy=0;fontFamily=Helvetica;fontSize=12;fontColor=default;" parent="1" source="mTrpfhtetsBGWyohpp0l-18" target="mTrpfhtetsBGWyohpp0l-72" edge="1">
          <mxGeometry relative="1" as="geometry">
            <Array as="points">
              <mxPoint x="120" y="610" />
              <mxPoint x="500" y="610" />
              <mxPoint x="500" y="720" />
            </Array>
          </mxGeometry>
        </mxCell>
        <mxCell id="mTrpfhtetsBGWyohpp0l-18" value="Клиент" style="ellipse;whiteSpace=wrap;html=1;aspect=fixed;strokeColor=default;align=center;verticalAlign=middle;fontFamily=Helvetica;fontSize=12;fontColor=default;fillColor=default;" parent="1" vertex="1">
          <mxGeometry x="40" y="620" width="80" height="80" as="geometry" />
        </mxCell>
        <mxCell id="mTrpfhtetsBGWyohpp0l-49" style="edgeStyle=orthogonalEdgeStyle;rounded=0;orthogonalLoop=1;jettySize=auto;html=1;fontFamily=Helvetica;fontSize=12;fontColor=default;" parent="1" source="mTrpfhtetsBGWyohpp0l-20" edge="1">
          <mxGeometry relative="1" as="geometry">
            <mxPoint x="180" y="710" as="targetPoint" />
          </mxGeometry>
        </mxCell>
        <mxCell id="mTrpfhtetsBGWyohpp0l-77" style="edgeStyle=orthogonalEdgeStyle;rounded=0;orthogonalLoop=1;jettySize=auto;html=1;exitX=1;exitY=0.5;exitDx=0;exitDy=0;entryX=0;entryY=0.5;entryDx=0;entryDy=0;fontFamily=Helvetica;fontSize=12;fontColor=default;" parent="1" source="mTrpfhtetsBGWyohpp0l-20" target="mTrpfhtetsBGWyohpp0l-72" edge="1">
          <mxGeometry relative="1" as="geometry">
            <Array as="points">
              <mxPoint x="120" y="820" />
              <mxPoint x="500" y="820" />
              <mxPoint x="500" y="720" />
            </Array>
          </mxGeometry>
        </mxCell>
        <mxCell id="mTrpfhtetsBGWyohpp0l-20" value="Разработчик" style="ellipse;whiteSpace=wrap;html=1;aspect=fixed;strokeColor=default;align=center;verticalAlign=middle;fontFamily=Helvetica;fontSize=12;fontColor=default;fillColor=default;" parent="1" vertex="1">
          <mxGeometry x="40" y="710" width="80" height="80" as="geometry" />
        </mxCell>
        <mxCell id="mTrpfhtetsBGWyohpp0l-35" style="edgeStyle=orthogonalEdgeStyle;rounded=0;orthogonalLoop=1;jettySize=auto;html=1;entryX=0;entryY=0.5;entryDx=0;entryDy=0;fontFamily=Helvetica;fontSize=12;fontColor=default;" parent="1" source="mTrpfhtetsBGWyohpp0l-37" target="mTrpfhtetsBGWyohpp0l-39" edge="1">
          <mxGeometry relative="1" as="geometry" />
        </mxCell>
        <mxCell id="mTrpfhtetsBGWyohpp0l-36" style="edgeStyle=orthogonalEdgeStyle;rounded=0;orthogonalLoop=1;jettySize=auto;html=1;entryX=0;entryY=0.5;entryDx=0;entryDy=0;fontFamily=Helvetica;fontSize=12;fontColor=default;" parent="1" source="mTrpfhtetsBGWyohpp0l-37" target="mTrpfhtetsBGWyohpp0l-45" edge="1">
          <mxGeometry relative="1" as="geometry">
            <Array as="points">
              <mxPoint x="50" y="1245" />
            </Array>
          </mxGeometry>
        </mxCell>
        <mxCell id="mTrpfhtetsBGWyohpp0l-37" value="Клиент" style="ellipse;whiteSpace=wrap;html=1;aspect=fixed;strokeColor=default;align=center;verticalAlign=middle;fontFamily=Helvetica;fontSize=12;fontColor=default;fillColor=default;" parent="1" vertex="1">
          <mxGeometry x="10" y="1070" width="80" height="80" as="geometry" />
        </mxCell>
        <mxCell id="mTrpfhtetsBGWyohpp0l-38" value="" style="edgeStyle=orthogonalEdgeStyle;rounded=0;orthogonalLoop=1;jettySize=auto;html=1;fontFamily=Helvetica;fontSize=12;fontColor=default;" parent="1" source="mTrpfhtetsBGWyohpp0l-39" target="mTrpfhtetsBGWyohpp0l-43" edge="1">
          <mxGeometry relative="1" as="geometry" />
        </mxCell>
        <mxCell id="mTrpfhtetsBGWyohpp0l-39" value="Создание идеи о программном продукте" style="whiteSpace=wrap;html=1;aspect=fixed;strokeColor=default;align=center;verticalAlign=middle;fontFamily=Helvetica;fontSize=12;fontColor=default;fillColor=default;" parent="1" vertex="1">
          <mxGeometry x="155" y="1070" width="80" height="80" as="geometry" />
        </mxCell>
        <mxCell id="mTrpfhtetsBGWyohpp0l-40" style="edgeStyle=orthogonalEdgeStyle;rounded=0;orthogonalLoop=1;jettySize=auto;html=1;entryX=0;entryY=0.5;entryDx=0;entryDy=0;fontFamily=Helvetica;fontSize=12;fontColor=default;" parent="1" source="mTrpfhtetsBGWyohpp0l-41" target="mTrpfhtetsBGWyohpp0l-45" edge="1">
          <mxGeometry relative="1" as="geometry" />
        </mxCell>
        <mxCell id="mTrpfhtetsBGWyohpp0l-41" value="Разработчик" style="ellipse;whiteSpace=wrap;html=1;aspect=fixed;strokeColor=default;align=center;verticalAlign=middle;fontFamily=Helvetica;fontSize=12;fontColor=default;fillColor=default;" parent="1" vertex="1">
          <mxGeometry x="20" y="1260" width="80" height="80" as="geometry" />
        </mxCell>
        <mxCell id="mTrpfhtetsBGWyohpp0l-42" style="edgeStyle=orthogonalEdgeStyle;rounded=0;orthogonalLoop=1;jettySize=auto;html=1;entryX=0.5;entryY=0;entryDx=0;entryDy=0;fontFamily=Helvetica;fontSize=12;fontColor=default;" parent="1" source="mTrpfhtetsBGWyohpp0l-43" target="mTrpfhtetsBGWyohpp0l-45" edge="1">
          <mxGeometry relative="1" as="geometry" />
        </mxCell>
        <mxCell id="mTrpfhtetsBGWyohpp0l-43" value="Идея" style="ellipse;whiteSpace=wrap;html=1;" parent="1" vertex="1">
          <mxGeometry x="285" y="1070" width="80" height="80" as="geometry" />
        </mxCell>
        <mxCell id="mTrpfhtetsBGWyohpp0l-44" value="" style="edgeStyle=orthogonalEdgeStyle;rounded=0;orthogonalLoop=1;jettySize=auto;html=1;fontFamily=Helvetica;fontSize=12;fontColor=default;" parent="1" source="mTrpfhtetsBGWyohpp0l-45" target="mTrpfhtetsBGWyohpp0l-46" edge="1">
          <mxGeometry relative="1" as="geometry" />
        </mxCell>
        <mxCell id="mTrpfhtetsBGWyohpp0l-45" value="Спецификация требований к программному продукту" style="whiteSpace=wrap;html=1;aspect=fixed;strokeColor=default;align=center;verticalAlign=middle;fontFamily=Helvetica;fontSize=12;fontColor=default;fillColor=default;" parent="1" vertex="1">
          <mxGeometry x="415" y="1200" width="90" height="90" as="geometry" />
        </mxCell>
        <mxCell id="mTrpfhtetsBGWyohpp0l-46" value="Требования к ПП" style="ellipse;whiteSpace=wrap;html=1;" parent="1" vertex="1">
          <mxGeometry x="590" y="1205" width="80" height="80" as="geometry" />
        </mxCell>
        <mxCell id="mTrpfhtetsBGWyohpp0l-69" value="" style="edgeStyle=orthogonalEdgeStyle;rounded=0;orthogonalLoop=1;jettySize=auto;html=1;fontFamily=Helvetica;fontSize=12;fontColor=default;" parent="1" source="mTrpfhtetsBGWyohpp0l-47" target="mTrpfhtetsBGWyohpp0l-68" edge="1">
          <mxGeometry relative="1" as="geometry" />
        </mxCell>
        <mxCell id="mTrpfhtetsBGWyohpp0l-71" style="edgeStyle=orthogonalEdgeStyle;rounded=0;orthogonalLoop=1;jettySize=auto;html=1;fontFamily=Helvetica;fontSize=12;fontColor=default;" parent="1" source="mTrpfhtetsBGWyohpp0l-47" target="mTrpfhtetsBGWyohpp0l-70" edge="1">
          <mxGeometry relative="1" as="geometry" />
        </mxCell>
        <mxCell id="mTrpfhtetsBGWyohpp0l-47" value="Системный анализ и спецификация требований" style="whiteSpace=wrap;html=1;aspect=fixed;strokeColor=default;align=center;verticalAlign=middle;fontFamily=Helvetica;fontSize=12;fontColor=default;fillColor=default;" parent="1" vertex="1">
          <mxGeometry x="180" y="650" width="120" height="120" as="geometry" />
        </mxCell>
        <mxCell id="mTrpfhtetsBGWyohpp0l-74" style="edgeStyle=orthogonalEdgeStyle;rounded=0;orthogonalLoop=1;jettySize=auto;html=1;fontFamily=Helvetica;fontSize=12;fontColor=default;" parent="1" source="mTrpfhtetsBGWyohpp0l-68" edge="1">
          <mxGeometry relative="1" as="geometry">
            <mxPoint x="530" y="720" as="targetPoint" />
          </mxGeometry>
        </mxCell>
        <mxCell id="mTrpfhtetsBGWyohpp0l-68" value="Концепция" style="ellipse;whiteSpace=wrap;html=1;" parent="1" vertex="1">
          <mxGeometry x="365" y="640" width="80" height="80" as="geometry" />
        </mxCell>
        <mxCell id="mTrpfhtetsBGWyohpp0l-75" style="edgeStyle=orthogonalEdgeStyle;rounded=0;orthogonalLoop=1;jettySize=auto;html=1;entryX=0;entryY=0.5;entryDx=0;entryDy=0;fontFamily=Helvetica;fontSize=12;fontColor=default;" parent="1" source="mTrpfhtetsBGWyohpp0l-70" target="mTrpfhtetsBGWyohpp0l-72" edge="1">
          <mxGeometry relative="1" as="geometry" />
        </mxCell>
        <mxCell id="mTrpfhtetsBGWyohpp0l-70" value="Требования" style="ellipse;whiteSpace=wrap;html=1;" parent="1" vertex="1">
          <mxGeometry x="365" y="730" width="80" height="80" as="geometry" />
        </mxCell>
        <mxCell id="mTrpfhtetsBGWyohpp0l-80" value="" style="edgeStyle=orthogonalEdgeStyle;rounded=0;orthogonalLoop=1;jettySize=auto;html=1;fontFamily=Helvetica;fontSize=12;fontColor=default;" parent="1" source="mTrpfhtetsBGWyohpp0l-72" target="mTrpfhtetsBGWyohpp0l-79" edge="1">
          <mxGeometry relative="1" as="geometry" />
        </mxCell>
        <mxCell id="mTrpfhtetsBGWyohpp0l-72" value="Проектирование" style="whiteSpace=wrap;html=1;aspect=fixed;strokeColor=default;align=center;verticalAlign=middle;fontFamily=Helvetica;fontSize=12;fontColor=default;fillColor=default;" parent="1" vertex="1">
          <mxGeometry x="520" y="660" width="120" height="120" as="geometry" />
        </mxCell>
        <mxCell id="mTrpfhtetsBGWyohpp0l-84" style="edgeStyle=orthogonalEdgeStyle;rounded=0;orthogonalLoop=1;jettySize=auto;html=1;fontFamily=Helvetica;fontSize=12;fontColor=default;" parent="1" source="mTrpfhtetsBGWyohpp0l-79" target="mTrpfhtetsBGWyohpp0l-83" edge="1">
          <mxGeometry relative="1" as="geometry" />
        </mxCell>
        <mxCell id="mTrpfhtetsBGWyohpp0l-79" value="План проекта" style="ellipse;whiteSpace=wrap;html=1;" parent="1" vertex="1">
          <mxGeometry x="680" y="680" width="80" height="80" as="geometry" />
        </mxCell>
        <mxCell id="mTrpfhtetsBGWyohpp0l-98" style="edgeStyle=orthogonalEdgeStyle;rounded=0;orthogonalLoop=1;jettySize=auto;html=1;entryX=0.5;entryY=1;entryDx=0;entryDy=0;fontFamily=Helvetica;fontSize=12;fontColor=default;" parent="1" source="mTrpfhtetsBGWyohpp0l-81" target="mTrpfhtetsBGWyohpp0l-88" edge="1">
          <mxGeometry relative="1" as="geometry">
            <Array as="points">
              <mxPoint x="590" y="915" />
              <mxPoint x="965" y="915" />
            </Array>
          </mxGeometry>
        </mxCell>
        <mxCell id="mTrpfhtetsBGWyohpp0l-99" style="edgeStyle=orthogonalEdgeStyle;rounded=0;orthogonalLoop=1;jettySize=auto;html=1;exitX=0.5;exitY=1;exitDx=0;exitDy=0;entryX=0.5;entryY=1;entryDx=0;entryDy=0;fontFamily=Helvetica;fontSize=12;fontColor=default;" parent="1" source="mTrpfhtetsBGWyohpp0l-81" target="mTrpfhtetsBGWyohpp0l-96" edge="1">
          <mxGeometry relative="1" as="geometry">
            <Array as="points">
              <mxPoint x="590" y="920" />
              <mxPoint x="1241" y="920" />
            </Array>
          </mxGeometry>
        </mxCell>
        <mxCell id="mTrpfhtetsBGWyohpp0l-101" style="edgeStyle=orthogonalEdgeStyle;rounded=0;orthogonalLoop=1;jettySize=auto;html=1;exitX=0.5;exitY=1;exitDx=0;exitDy=0;entryX=0.5;entryY=1;entryDx=0;entryDy=0;fontFamily=Helvetica;fontSize=12;fontColor=default;" parent="1" source="mTrpfhtetsBGWyohpp0l-81" target="mTrpfhtetsBGWyohpp0l-83" edge="1">
          <mxGeometry relative="1" as="geometry" />
        </mxCell>
        <mxCell id="mTrpfhtetsBGWyohpp0l-81" value="Разработчик" style="ellipse;whiteSpace=wrap;html=1;aspect=fixed;strokeColor=default;align=center;verticalAlign=middle;fontFamily=Helvetica;fontSize=12;fontColor=default;fillColor=default;" parent="1" vertex="1">
          <mxGeometry x="550" y="810" width="80" height="80" as="geometry" />
        </mxCell>
        <mxCell id="mTrpfhtetsBGWyohpp0l-87" value="" style="edgeStyle=orthogonalEdgeStyle;rounded=0;orthogonalLoop=1;jettySize=auto;html=1;fontFamily=Helvetica;fontSize=12;fontColor=default;" parent="1" source="mTrpfhtetsBGWyohpp0l-83" target="mTrpfhtetsBGWyohpp0l-86" edge="1">
          <mxGeometry relative="1" as="geometry" />
        </mxCell>
        <mxCell id="mTrpfhtetsBGWyohpp0l-83" value="Реализация" style="whiteSpace=wrap;html=1;aspect=fixed;strokeColor=default;align=center;verticalAlign=middle;fontFamily=Helvetica;fontSize=12;fontColor=default;fillColor=default;" parent="1" vertex="1">
          <mxGeometry x="680" y="810" width="80" height="80" as="geometry" />
        </mxCell>
        <mxCell id="mTrpfhtetsBGWyohpp0l-89" style="edgeStyle=orthogonalEdgeStyle;rounded=0;orthogonalLoop=1;jettySize=auto;html=1;entryX=0;entryY=0.5;entryDx=0;entryDy=0;fontFamily=Helvetica;fontSize=12;fontColor=default;" parent="1" source="mTrpfhtetsBGWyohpp0l-86" target="mTrpfhtetsBGWyohpp0l-88" edge="1">
          <mxGeometry relative="1" as="geometry" />
        </mxCell>
        <mxCell id="cHWbfoHMwutftLy_M3QO-3" style="edgeStyle=orthogonalEdgeStyle;rounded=0;orthogonalLoop=1;jettySize=auto;html=1;fontSize=12;startSize=8;endSize=8;entryX=0;entryY=0.5;entryDx=0;entryDy=0;" edge="1" parent="1" source="mTrpfhtetsBGWyohpp0l-86" target="mTrpfhtetsBGWyohpp0l-96">
          <mxGeometry relative="1" as="geometry">
            <mxPoint x="1100" y="720" as="targetPoint" />
            <Array as="points">
              <mxPoint x="850" y="800" />
              <mxPoint x="1180" y="800" />
              <mxPoint x="1180" y="850" />
            </Array>
          </mxGeometry>
        </mxCell>
        <mxCell id="mTrpfhtetsBGWyohpp0l-86" value="Прототип" style="ellipse;whiteSpace=wrap;html=1;" parent="1" vertex="1">
          <mxGeometry x="810" y="810" width="80" height="80" as="geometry" />
        </mxCell>
        <mxCell id="mTrpfhtetsBGWyohpp0l-95" value="" style="edgeStyle=orthogonalEdgeStyle;rounded=0;orthogonalLoop=1;jettySize=auto;html=1;fontFamily=Helvetica;fontSize=12;fontColor=default;" parent="1" source="mTrpfhtetsBGWyohpp0l-88" target="mTrpfhtetsBGWyohpp0l-94" edge="1">
          <mxGeometry relative="1" as="geometry" />
        </mxCell>
        <mxCell id="mTrpfhtetsBGWyohpp0l-88" value="Тестирование" style="whiteSpace=wrap;html=1;aspect=fixed;strokeColor=default;align=center;verticalAlign=middle;fontFamily=Helvetica;fontSize=12;fontColor=default;fillColor=default;" parent="1" vertex="1">
          <mxGeometry x="920" y="805" width="90" height="90" as="geometry" />
        </mxCell>
        <mxCell id="cHWbfoHMwutftLy_M3QO-6" style="edgeStyle=orthogonalEdgeStyle;rounded=0;orthogonalLoop=1;jettySize=auto;html=1;fontSize=12;startSize=8;endSize=8;entryX=0.5;entryY=0;entryDx=0;entryDy=0;" edge="1" parent="1" source="mTrpfhtetsBGWyohpp0l-94" target="mTrpfhtetsBGWyohpp0l-96">
          <mxGeometry relative="1" as="geometry">
            <mxPoint x="1160" y="750" as="targetPoint" />
            <Array as="points">
              <mxPoint x="1115" y="750" />
              <mxPoint x="1241" y="750" />
            </Array>
          </mxGeometry>
        </mxCell>
        <mxCell id="mTrpfhtetsBGWyohpp0l-94" value="Результаты тестирования" style="ellipse;whiteSpace=wrap;html=1;" parent="1" vertex="1">
          <mxGeometry x="1070" y="810" width="90" height="80" as="geometry" />
        </mxCell>
        <mxCell id="cHWbfoHMwutftLy_M3QO-8" value="" style="edgeStyle=none;curved=1;rounded=0;orthogonalLoop=1;jettySize=auto;html=1;fontSize=12;startSize=8;endSize=8;" edge="1" parent="1" source="mTrpfhtetsBGWyohpp0l-96" target="cHWbfoHMwutftLy_M3QO-7">
          <mxGeometry relative="1" as="geometry" />
        </mxCell>
        <mxCell id="mTrpfhtetsBGWyohpp0l-96" value="Модификация" style="whiteSpace=wrap;html=1;aspect=fixed;strokeColor=default;align=center;verticalAlign=middle;fontFamily=Helvetica;fontSize=12;fontColor=default;fillColor=default;" parent="1" vertex="1">
          <mxGeometry x="1196" y="805" width="90" height="90" as="geometry" />
        </mxCell>
        <mxCell id="cHWbfoHMwutftLy_M3QO-7" value="Модифицированный прототип" style="ellipse;whiteSpace=wrap;html=1;" vertex="1" parent="1">
          <mxGeometry x="1520" y="800" width="221" height="100" as="geometry" />
        </mxCell>
      </root>
    </mxGraphModel>
  </diagram>
</mxfile>
